<svg xmlns="http://www.w3.org/2000/svg" xmlns:xlink="http://www.w3.org/1999/xlink" viewBox="0 0 362.93 384"><defs><clipPath id="a" transform="translate(-0.54 -1)"><rect y="1" width="364" height="384" fill="none"/></clipPath></defs><title>feedback</title><g clip-path="url(#a)"><path d="M329.66,1H34.34A33.84,33.84,0,0,0,.54,34.81v264.7a33.83,33.83,0,0,0,33.8,33.8H141.51L172.63,380a11.28,11.28,0,0,0,18.75,0l31.11-46.68H329.66a33.84,33.84,0,0,0,33.81-33.8V34.81A33.85,33.85,0,0,0,329.66,1Zm11.27,298.51a11.28,11.28,0,0,1-11.27,11.27H216.46a11.26,11.26,0,0,0-9.37,5L182,353.43,156.91,315.8a11.24,11.24,0,0,0-9.37-5H34.34a11.29,11.29,0,0,1-11.27-11.27V34.81A11.28,11.28,0,0,1,34.34,23.54H329.66a11.28,11.28,0,0,1,11.27,11.27Zm0,0" transform="translate(-0.54 -1)"/></g><path d="M291.23,43.35a39.08,39.08,0,0,0-51,21.11L181,207.55a11.4,11.4,0,0,0-.8,5.36l5.51,59.15a11.27,11.27,0,0,0,18.41,7.62l45.72-37.93a11.26,11.26,0,0,0,3.22-4.35L312.33,94.3a39,39,0,0,0-21.1-50.95Zm.28,42.33L285,101.41l-30.42-12.6,6.52-15.73a16.46,16.46,0,1,1,30.41,12.6Zm-58.2,140.51-27.15,22.52-3.26-35.12,43.06-104,30.41,12.6Zm0,0" transform="translate(-0.54 -1)"/><path d="M184.25,130.1A11.26,11.26,0,0,0,173,118.84H60a11.27,11.27,0,0,0,0,22.53H173a11.27,11.27,0,0,0,11.27-11.27Zm0,0" transform="translate(-0.54 -1)"/><path d="M60,88.89H200.33a11.27,11.27,0,0,0,0-22.54H60a11.27,11.27,0,0,0,0,22.54Zm0,0" transform="translate(-0.54 -1)"/><path d="M60,197.29h89a11.27,11.27,0,1,0,0-22.54H60a11.27,11.27,0,0,0,0,22.54Zm0,0" transform="translate(-0.54 -1)"/><path d="M155.36,230.66H60a11.27,11.27,0,0,0,0,22.54h95.4a11.27,11.27,0,0,0,0-22.54Zm0,0" transform="translate(-0.54 -1)"/></svg>