<svg xmlns="http://www.w3.org/2000/svg" viewBox="0 0 616.66 403.38" width="146" height="100"><title>Asset 1</title><path d="M212.94,228.79v19.38h-6.53c-18.53,0-29.46-14.27-29.46-37.48v-57.3H163.89V134.65H177V108h16.93v26.62h17.29v18.74H193.88V210.9c0,12.14,4.24,17.89,13.41,17.89Z" fill="#fff"/><path d="M290.75,178.53v68.36H273.63V179.17c0-20-4.41-27.69-13.06-27.69-9.7,0-15.87,9.37-15.87,26v69.43H227.58V104.45H244.7v41.06c4.58-8.3,11.46-13.63,20.46-13.63C281.39,131.88,290.75,146.79,290.75,178.53Z" fill="#fff"/><path d="M474.51,176.61v70.28H457.57V177.25c0-18.74-4.41-25.77-12.35-25.77-9.35,0-15.53,9.37-15.53,26v69.43H412.76V177.25c0-18.74-4.77-25.77-12.71-25.77-9.17,0-15.35,9.37-15.35,26v69.43H367.77V134.65h14l-.1,12.57c4.59-9.59,12-15.34,22.23-15.34,9.89,0,17.3,5.54,21.71,17,4.58-10.86,12.52-17,23.46-17C464.81,131.88,474.51,146.58,474.51,176.61Z" fill="#fff"/><path d="M318.36,180.57h21.58V156.69c0-6.67-3.15-10-9.6-10H327.9c-6.38,0-9.61,3.37-9.61,10v23.88Zm0,15.27.07,26.24c0,6.67,3.23,10,9.61,10h2.8c6.38,0,9.61-3.3,9.61-10v-12.9h14.69v12.26c0,16.85-8.17,25.45-24.37,25.45h-3.23c-16.21,0-24.38-8.53-24.38-23.44V159.27c0-18.85,8.17-27.39,24.38-27.39h3.23c16.2,0,24.37,8.54,24.37,25.39l-.07,38.5H318.36Z" fill="#fff"/><path d="M502.05,180.57h21.58V156.69c0-6.67-3.15-10-9.61-10h-2.43c-6.38,0-9.61,3.37-9.61,10v23.88Zm0,15.27.07,26.24c0,6.67,3.23,10,9.61,10h2.8c6.38,0,9.6-3.3,9.6-10v-12.9h14.7v12.26c0,16.85-8.17,25.45-24.38,25.45h-3.22c-16.21,0-24.38-8.53-24.38-23.44V159.27c0-18.85,8.17-27.39,24.38-27.39h3.22c16.21,0,24.38,8.54,24.38,25.39l-.07,38.5H502.05Z" fill="#fff"/><path d="M58.92,62.45H76.35V43.16c0-5.39-2.54-8.11-7.76-8.11h-2c-5.15,0-7.76,2.72-7.76,8.11V62.45Zm0,12.34L59,96c0,5.39,2.61,8.06,7.77,8.06H69c5.15,0,7.76-2.67,7.76-8.06V85.57H88.64v9.9C88.64,109.09,82,116,68.94,116H66.33c-13.09,0-19.69-6.9-19.69-19V45.24c0-15.23,6.6-22.13,19.69-22.13h2.61c13.09,0,19.7,6.9,19.7,20.51l-.06,31.11H58.92Z" fill="#fff"/><path d="M127.22,39.68A16.92,16.92,0,0,0,115.92,35c-4.52,0-7.12,2.2-7.12,7.42V96.28c0,5.22,2.6,7.42,7.12,7.42A16.92,16.92,0,0,0,127.22,99Zm12.28,75H127.22V108.8a20.17,20.17,0,0,1-15,6.89c-10.48,0-15.64-7.24-15.64-18V40.78c0-10.77,5.16-18,15.64-18a20.64,20.64,0,0,1,15,6.54V0H139.5Z" fill="#fff"/><polygon points="0 66.33 0 78.61 31.52 109.49 31.52 92.4 10.89 72.3 31.52 51.79 31.52 35.05 0 66.33" fill="#05a79d"/><polygon points="154.5 51.79 175.13 72.3 154.5 92.46 154.5 109.49 186.02 78.61 186.02 66.33 154.5 35.05 154.5 51.79" fill="#05a79d"/><rect x="544.85" y="256.41" width="15.74" height="146.97" fill="#fff"/><rect x="580.12" y="287.85" width="15.74" height="115.53" fill="#fff"/><line x1="579.53" y1="230.6" x2="588.43" y2="227.84" fill="none" stroke="#fff200" stroke-miterlimit="10" stroke-width="0.3"/><polygon points="588.43 227.84 595.3 229.66 598.71 231.71 602.01 234.75 603.42 237.93 604.96 240.59 605.65 244.53 604.96 250.28 602.32 255.75 597.99 261.9 597.04 265.78 596.17 270.03 595.64 273.14 594.7 276.28 593.13 278.07 589.66 280.05 584.8 279.51 581.57 277.08 580.61 272.38 580.61 268.21 579.17 264.19 577.2 261 572.27 252.81 570.52 244.22 572.12 239 574.47 234.82 578.49 230.89 581.86 229.06 585.78 228.3 588.43 227.84" fill="#05a79d"/><path d="M589.58,217.45,588,221a14.76,14.76,0,0,1-.91-3.54,12,12,0,0,1,.85-3.28Z" fill="#474749"/><path d="M603.27,218.73c-1,1.64-1.91,3.18-2.92,4.65a1.23,1.23,0,0,1-1.16.13c-.28-.18-.58-.85-.45-1.09a49.39,49.39,0,0,1,2.54-4.41,1.29,1.29,0,0,1,1.17-.23C602.78,217.89,603,218.37,603.27,218.73Z" fill="#474749"/><path d="M577.57,222.72c-.32.43-.51.94-.83,1a1.25,1.25,0,0,1-1.16-.31,46.3,46.3,0,0,1-2.47-4.18,1.19,1.19,0,0,1,.29-1.13c.27-.2,1-.2,1.18,0C575.61,219.58,576.54,221.11,577.57,222.72Z" fill="#474749"/><path d="M568.4,231.72c-.63.57-1.1,1.14-1.22,1.07-1.56-.82-3.09-1.71-4.57-2.67-.1-.06.21-.74.33-1.14,1.06.38,2.16.67,3.18,1.15A16.86,16.86,0,0,1,568.4,231.72Z" fill="#474749"/><path d="M614,229.7a16.81,16.81,0,0,1-2.28,1.62,31.55,31.55,0,0,1-3.17,1.16c-.12-.39-.43-1.07-.34-1.12q2.22-1.41,4.55-2.63C612.91,228.65,613.37,229.18,614,229.7Z" fill="#474749"/><path d="M614.14,242.58l2.52,1.62c-.82.35-.73,1-2.48,1a8.48,8.48,0,0,1-2.73-1Z" fill="#474749"/><path d="M562,243l2.55,1.34a7.25,7.25,0,0,1-2.55,1.13,7.63,7.63,0,0,1-2.66-1Z" fill="#474749"/><path d="M567,255.12c.26,2.06-1.42,4-2.89,3.56-.37-.11-.9-.56-.9-.84a1.76,1.76,0,0,1,.65-1.32A28,28,0,0,1,567,255.12Z" fill="#474749"/><path d="M612.53,257.82a21.09,21.09,0,0,1-4.12-2l.38-.91,4.08,1.87Z" fill="#474749"/><path d="M603.42,255.75c-3.75,5.52-6.35,11.21-6.79,18-.29,4.4-4.44,7.41-9,7.24a8.3,8.3,0,0,1-8.08-8c-.09-6.39-2.94-11.52-6.47-16.56a17.78,17.78,0,0,1-1.88-18.29c2.87-6.48,8-10.29,15.08-10.92a18.19,18.19,0,0,1,20.25,18.37M579.44,261.7c.06,0,.07-.1.06-.21s0-.29,0-.38c0-.79,0-.94,0-2.5,0-3.3-.13-6.52,0-9.78a9.44,9.44,0,0,1,.93-3.58A67.88,67.88,0,0,1,586.59,235c1.15-2,2.07-1.61,3.08.09,1.71,2.88,3.55,5.65,5.23,8.58a12.37,12.37,0,0,1,1.9,6.9c-.13,3.63,0,7.26,0,10.9,0,1,0-.07,0,0s0,.21,0,.23a33.25,33.25,0,0,0,6.77-10.76c2.46-6.45.81-12.42-4.14-17.15s-11.15-6-17.6-3.27-9.65,7.66-10.1,14.55C571.27,251.77,575.7,256.64,579.44,261.7Zm6.12-12.53c.18.43-.22.58-.2.43-1.31.44-2.37,0-3.78.48,0,6.25,0,12.65,0,19,0,1.91,1.82,2.05,3.54,1.42.07-4.75,0-9.47.06-13.75l1.32.06v13.78c2.54.53,3.23,0,3.26-2,0-3.52-.07-6.66-.08-10.19q0-3.08,0-6.15c.35-.11.89.11,1.23,0,.36.67.8,1,.83,1.68.09,2.08-.08,4.16-.09,6.25,0,3.58,0,7.17,0,10.84h3.08V250.14l-4.13-1.48,0,.51Zm8.73,24.49H581.84c1.07,3.66,3.31,5.36,6.59,5.24C591.41,278.79,593.49,277,594.29,273.66ZM588,236.43c-.9.88-1.58,1.45-4.08,5.4a14.37,14.37,0,0,0-2.1,4.89h12.37a17.4,17.4,0,0,0-2.29-5.05c-2.8-4.22-3.51-4.93-3.9-5.24" fill="#474749"/><rect x="581.57" y="248.66" width="13.72" height="1.62" fill="#474749"/><path d="M603.42,255.75a24.68,24.68,0,0,0,3.08-10.17" fill="#474749"/><rect x="589.66" y="252.14" width="2.07" height="18.93" fill="#474749"/><rect x="581.44" y="269.18" width="13.54" height="2.45" fill="#474749"/><rect x="584.8" y="252.14" width="1.96" height="17.04" fill="#474749"/></svg>
