<svg xmlns="http://www.w3.org/2000/svg" xmlns:xlink="http://www.w3.org/1999/xlink" viewBox="0 0 384 384"><defs><clipPath id="a"><rect width="384" height="384" fill="none"/></clipPath></defs><title>contract</title><path d="M292.13,65.57a33.57,33.57,0,0,0-9.88-23.87L250.43,9.89A34.51,34.51,0,0,0,226.35,0h-1.93V67.5h67.72Zm0,0"/><path d="M205.45,232.15a45.12,45.12,0,0,1,10.81-17.55l76.17-75.87V90H213.38A10.94,10.94,0,0,1,202.5,78.75V0H33.75A33.79,33.79,0,0,0,0,33.75v316.5A33.79,33.79,0,0,0,33.75,384H258.38c18.62,0,34.05-15.14,34.05-33.75v-84l-12.36,12.06a44.67,44.67,0,0,1-17.49,10.79l-35.77,11.94-5.45.3a28.12,28.12,0,0,1-26.65-37.06ZM56.25,202.5H168.38a11.25,11.25,0,0,1,0,22.5H56.25a11.25,11.25,0,0,1,0-22.5ZM45,168.75A11.24,11.24,0,0,1,56.25,157.5H168.38a11.25,11.25,0,0,1,0,22.5H56.25A11.24,11.24,0,0,1,45,168.75Zm0,90A11.24,11.24,0,0,1,56.25,247.5H168.38a11.25,11.25,0,0,1,0,22.5H56.25A11.24,11.24,0,0,1,45,258.75ZM213.38,315a11.25,11.25,0,0,1,0,22.5h-67.5a11.25,11.25,0,0,1,0-22.5ZM56.25,135a11.25,11.25,0,0,1,0-22.5H213.38a11.25,11.25,0,0,1,0,22.5Zm0,0"/><path d="M225.83,242.1l-9.78,29.37a5.62,5.62,0,0,0,7.11,7.11l29.35-9.8Zm0,0"/><g clip-path="url(#a)"><path d="M313.21,149.48l-74.1,74.09,32,32,74.09-74.1Zm0,0"/><path d="M377.39,117.21a23.5,23.5,0,0,0-31.93,0l-16.35,16.35,31.95,32,16.35-16.35a22.65,22.65,0,0,0,0-32Zm0,0"/></g><path d="M377.41,149.17h0l.07-.07-.07.07Zm0,0"/><path d="M377.48,149.1l.1-.09-.1.09Zm0,0"/><path d="M377.58,149Zm0,0"/></svg>