<svg xmlns="http://www.w3.org/2000/svg" viewBox="0 0 390.88 337.58"><title>portfolio</title><path d="M373.11,186.56c-5.33,0-8.88,3.55-8.88,8.88V310.93c0,5.33-3.56,8.88-8.89,8.88H35.53c-5.33,0-8.88-3.55-8.88-8.88V195.44c0-5.33-3.55-8.88-8.88-8.88s-8.89,3.55-8.89,8.88V310.93a26.18,26.18,0,0,0,26.65,26.65H355.34A26.18,26.18,0,0,0,382,310.93V195.44C382,190.11,378.44,186.56,373.11,186.56Z"/><path d="M364.23,62.19H26.65A26.17,26.17,0,0,0,0,88.84v56.85a26.65,26.65,0,0,0,20.43,25.76l139.48,31.1V231c0,5.33,3.55,8.89,8.88,8.89h53.3c5.33,0,8.88-3.56,8.88-8.89V202.55l139.48-31.1a26.65,26.65,0,0,0,20.43-25.76V88.84A26.17,26.17,0,0,0,364.23,62.19Zm-151,159.9H177.67V186.56h35.54Zm159.9-76.4a8.64,8.64,0,0,1-7.11,8.88L231,184.78v-7.11c0-5.33-3.55-8.88-8.88-8.88h-53.3c-5.33,0-8.88,3.55-8.88,8.88v7.11l-135-30.21a8.64,8.64,0,0,1-7.1-8.88V88.84c0-5.33,3.55-8.89,8.88-8.89H364.23c5.33,0,8.88,3.56,8.88,8.89Z"/><path d="M133.25,44.42c5.33,0,8.89-3.56,8.89-8.89V26.65c0-5.33,3.55-8.88,8.88-8.88h88.84c5.33,0,8.88,3.55,8.88,8.88v8.88c0,5.33,3.55,8.89,8.88,8.89s8.89-3.56,8.89-8.89V26.65A26.18,26.18,0,0,0,239.86,0H151a26.18,26.18,0,0,0-26.65,26.65v8.88C124.37,40.86,127.92,44.42,133.25,44.42Z"/></svg>